<?xml version="1.0" standalone="no"?>
<!DOCTYPE svg PUBLIC "-//W3C//DTD SVG 20010904//EN"
 "http://www.w3.org/TR/2001/REC-SVG-20010904/DTD/svg10.dtd">
<svg version="1.0" xmlns="http://www.w3.org/2000/svg"
 width="80.000000pt" height="80.000000pt" viewBox="0 0 144.000000 144.000000"
 preserveAspectRatio="xMidYMid meet">
	<linearGradient id="Geek1" x1="2%"
				y1="1%" x2="100%" y2="1%">
		<stop offset="0%" style=
                "stop-color:rgb(34, 221, 81);stop-opacity:1" />
		<stop offset="100%" style=
                "stop-color:rgb(11, 22, 172);stop-opacity:1" />
	</linearGradient>
<g transform="translate(0.000000,144.000000) scale(0.100000,-0.100000)"
fill="#000000" stroke="none">
<path d="M593 1390 c-111 -20 -254 -90 -331 -161 -19 -16 -55 -58 -80 -92
-259 -344 -148 -831 233 -1018 121 -59 188 -72 330 -66 130 5 187 20 298 79
87 46 221 182 270 274 230 437 -79 975 -568 990 -55 2 -123 -1 -152 -6z m282
-35 c104 -26 221 -92 294 -165 264 -265 260 -693 -9 -944 l-50 -47 -45 27
c-80 46 -129 56 -315 63 l-175 6 80 81 c70 71 88 84 146 103 65 21 95 44 118
88 17 33 14 41 -14 35 -21 -4 -13 7 42 59 37 35 75 73 86 84 25 28 50 86 40
96 -4 4 -79 3 -165 -3 -156 -12 -340 -2 -358 19 -4 4 8 100 25 213 18 113 36
226 40 253 l6 47 98 0 c53 0 124 -7 156 -15z m-400 -99 c-3 -33 -26 -189 -51
-345 -24 -157 -44 -311 -44 -344 0 -51 4 -62 28 -87 18 -17 45 -31 68 -35 21
-3 53 -9 71 -13 l32 -7 -75 -84 c-60 -68 -74 -90 -74 -116 0 -20 6 -35 15 -39
8 -3 79 -1 157 5 104 8 167 8 231 0 88 -12 167 -36 167 -51 0 -20 -203 -70
-288 -70 -71 0 -192 26 -259 55 -136 61 -254 177 -323 320 -49 103 -64 169
-64 280 0 112 15 176 66 285 34 70 56 100 127 170 82 82 194 156 214 143 5 -3
6 -33 2 -67z m310 -489 l160 2 -60 -55 c-33 -30 -88 -80 -123 -111 l-64 -57
-73 0 c-59 -1 -77 3 -95 19 -21 19 -22 26 -16 102 9 115 9 115 65 106 25 -4
118 -7 206 -6z"/>
</g>
</svg>
