<svg xmlns="http://www.w3.org/2000/svg" xmlns:svgjs="http://svgjs.com/svgjs" xmlns:xlink="http://www.w3.org/1999/xlink" width="288" height="288"><svg xmlns="http://www.w3.org/2000/svg" width="288" height="288" viewBox="0 0 577 581"><path fill="#e3ffe1" d="M0 0L0 581L577 581L577 0L0 0z" class="colorfff svgShape"/><path fill="#0da100" d="M277 15.4244C260.2 17.6302 243.725 17.7303 227 21.4244C177.215 32.4205 127.566 58.0267 92.0394 95.0008C2.2911 188.406 -14.3832 336.183 60.0255 444C77.2118 468.903 97.8023 490.378 122 508.525C150.397 529.821 182.828 545.186 217 554.575C251.431 564.035 288.748 565.214 324 560.714C459.155 543.464 566.946 417.686 560.961 281C555.811 163.387 478.622 61.9656 366 26.9745C338.548 18.4453 305.849 11.6364 277 15.4244z" class="color010101 svgShape"/><path fill="#e3ffe1" d="M249 29L242.424 79L224.728 189L218 236C231.756 237.777 245.15 241.512 259 242.83C297.132 246.459 336.888 244.52 375 241.91C388.701 240.972 402.322 239.197 416 237.925C420.382 237.518 427.723 235.229 431.447 238.564C438.06 244.487 427.734 265.513 423.945 271C414.807 284.235 400.703 295.189 389 306.09C376.841 317.415 365.233 329.918 352 340L352 341L374 335C373.756 340.597 372.11 345.719 370.333 351C358.548 386.01 324.417 384.53 296 398.419C287.976 402.341 281.254 411.746 275 418C260.972 432.028 240.193 447.278 231 465C282.013 465 339.523 457.776 389 471.86C403.964 476.119 417.806 483.012 431 491.192C436.021 494.305 441.91 500.353 448 496.836C456.051 492.187 463.449 483.549 470 477C486.7 460.306 501.571 442.588 513.281 422C571.727 319.248 555.79 190.44 473.961 105C434.518 63.8172 379.518 36.4991 323 29.2855C298.012 26.0962 273.952 27.9288 249 29M403 525L403 523C351.35 495.938 284.651 502.559 228 505.039C213.129 505.691 194.638 510.26 180 507.593C175.397 506.754 170.626 501.385 169.434 497C166.168 484.99 174.461 472.673 181.4 464C197.16 444.3 217.632 427.639 232 407C205.781 406.459 172.144 405.405 156.108 381C144.282 363.002 150.265 332.917 153 313C160.391 259.188 170.567 205.785 178.13 152C181.928 124.992 185.982 98.0367 189.576 71C190.132 66.8139 192.532 47.1914 186.852 46.5309C181.767 45.9396 174.397 51.5491 170 53.7531C154.922 61.3116 140.339 70.2436 127 80.5764C70.0829 124.666 32.1399 191.021 25.1698 263C11.4631 404.544 117.093 537.175 260 550.83C310.467 555.652 356.766 544.249 403 525M212 267C208.738 284.508 207.011 302.35 204.718 320C203.607 328.554 202.207 340.288 207.005 347.985C216.904 363.864 245.035 362.522 261 360.424C267.522 359.568 274.872 360.218 281 357.442C289.403 353.635 296.256 345.261 303 339.17C318.421 325.241 333.944 311.363 349 297.039C357.815 288.652 371.798 280.155 377 269C361.185 272.809 344.137 271.984 328 273.09C288.731 275.779 250.815 274.313 212 267z" class="colorfff svgShape"/></svg></svg>